<svg cache-id="ad3d9b8293284fb18195b1c47786d7e7" id="eDpHlq05aoG1" xmlns="http://www.w3.org/2000/svg" xmlns:xlink="http://www.w3.org/1999/xlink" viewBox="80 100 100 100" shape-rendering="geometricPrecision" text-rendering="geometricPrecision"><g><rect width="78.125" height="100" rx="0" ry="0" transform="matrix(1.28 0 0 1 80 100)" stroke-width="0"/></g><g transform="translate(1.08603-.320369)"><rect width="78.125" height="100" rx="0" ry="0" transform="matrix(1.28 0 0 1 80 100)" stroke-width="0"/><polygon points="-3.241497,-6.634184 -2.293437,5.542319 -0.173511,7.494912 -1.707504,16.973 -1.345377,30.356273 -3.241497,24.037547 -5.137618,30.356273 -4.775491,16.973 -6.309484,7.494912 -4.189557,5.542319 -3.241497,-6.634184" transform="matrix(1.882122 0 0-.324408 131.412594 119.805081)" fill="#f7ab0a" stroke-width="0"/></g><polygon points="-3.241497,-6.634184 -2.293437,5.542319 -0.173511,7.494912 -1.707504,16.973 -1.345377,30.356273 -3.241497,24.037547 -5.137618,30.356273 -4.775491,16.973 -6.309484,7.494912 -4.189557,5.542319 -3.241497,-6.634184" transform="matrix(2.242655 0 0-.324408 328.148295 131.805044)" fill="#f7ab0a" stroke-width="0"/><polygon points="-4.03137,-6.634184 -3.327394,-1.240391 -1.753256,-0.375456 -2.892313,3.823027 -2.623418,9.751379 -4.03137,6.95239 -5.439322,9.751379 -5.170427,3.823027 -6.309484,-0.375456 -4.735346,-1.240391 -4.03137,-6.634184" transform="matrix(2.633758 0 0-.732352 260.48912 117.098705)" fill="#f7ab0a" stroke-width="0"/><polygon points="19.321688,-6.634184 27.242154,0.037181 44.952851,1.106984 32.137269,6.299918 35.162621,13.632458 19.321688,10.170501 3.480746,13.632458 6.506098,6.299918 -6.309484,1.106984 11.401221,0.037181 19.321688,-6.634184" transform="matrix(-.234093 0 0-.584057 248.394537 71.038782)" fill="#f7ab0a" stroke-width="0"/><polygon points="-4.377241,-6.634184 -3.780145,5.542319 -2.444998,7.494912 -3.411119,16.973 -3.183049,30.356273 -4.377241,24.037547 -5.571433,30.356273 -5.343363,16.973 -6.309484,7.494912 -4.974337,5.542319 -4.377241,-6.634184" transform="matrix(3.105199 0 0-.324407 180.944391 72.761348)" fill="#fff" stroke-width="0"/><polygon points="-3.670062,-6.634184 -2.854435,3.801522 -1.03064,5.474966 -2.350351,13.598032 -2.038809,25.067984 -3.670062,19.652606 -5.301315,25.067984 -4.989773,13.598032 -6.309484,5.474966 -4.485688,3.801522 -3.670062,-6.634184" transform="matrix(2.273225 0 0-.378523 174.720838 162.643244)" fill="#f7ab0a" stroke-width="0"/><polygon points="-4.37724,-6.634184 -3.780144,-2.136678 -2.444997,-1.415469 -3.411119,2.085352 -3.183048,7.028589 -4.37724,4.694708 -5.571433,7.028589 -5.343363,2.085352 -6.309484,-1.415469 -4.974336,-2.136678 -4.37724,-6.634184" transform="matrix(3.250382 0 0-.878299 163.125829 158.326769)" fill="#fff" stroke-width="0"/><polygon points="-4.031369,-6.634184 -3.327393,5.542319 -1.753255,7.494912 -2.892312,16.973 -2.623417,30.356273 -4.031369,24.037547 -5.439322,30.356273 -5.170427,16.973 -6.309484,7.494912 -4.735345,5.542319 -4.031369,-6.634184" transform="matrix(2.633757 0 0-.324408 177.969833 180.001383)" fill="#fff" stroke-width="0"/><polygon points="-3.241497,-6.634184 -2.293437,5.542319 -0.173511,7.494912 -1.707504,16.973 -1.345377,30.356273 -3.241497,24.037547 -5.137618,30.356273 -4.775491,16.973 -6.309484,7.494912 -4.189557,5.542319 -3.241497,-6.634184" transform="matrix(1.983961 0 0-.324408 167.696424 197.527448)" fill="#f7ab0a" stroke-width="0"/><polygon points="-3.241497,-6.634184 -2.293437,5.542319 -0.173511,7.494912 -1.707504,16.973 -1.345377,30.356273 -3.241497,24.037547 -5.137618,30.356273 -4.775491,16.973 -6.309484,7.494912 -4.189557,5.542319 -3.241497,-6.634184" transform="matrix(1.882122 0 0-.324408 148.379175 197.527448)" fill="#fff" stroke-width="0"/><polygon points="-4.377239,-6.634184 -3.780143,-5.030337 -2.444995,-4.773148 -3.411117,-3.524727 -3.183046,-1.761929 -4.377239,-2.59421 -5.571433,-1.761929 -5.343362,-3.524727 -6.309484,-4.773148 -4.974336,-5.030337 -4.377239,-6.634184" transform="matrix(3.083075 0 0-2.462925 139.075481 159.814067)" fill="#fff" stroke-width="0"/><polygon points="-4.600855,-6.634184 -4.072859,0.916817 -2.892226,2.127676 -3.746541,8.005311 -3.544864,16.304665 -4.600855,12.386241 -5.656846,16.304665 -5.45517,8.005311 -6.309484,2.127676 -5.12885,0.916817 -4.600855,-6.634184" transform="matrix(3.511588 0 0-.52313 141.693684 152.529459)" fill="#f7ab0a" stroke-width="0"/><polygon points="-3.241497,-6.634184 -2.293437,-4.905807 -0.173511,-4.628649 -1.707504,-3.283295 -1.345377,-1.383625 -3.241497,-2.280528 -5.137618,-1.383625 -4.775491,-3.283295 -6.309484,-4.628649 -4.189557,-4.905807 -3.241497,-6.634184" transform="matrix(1.882122 0 0-2.285471 131.412594 123.912312)" fill="#fff" stroke-width="0"/><polygon points="0,-6.634184 1.949738,-2.683584 6.309484,-2.050076 3.154742,1.025038 3.899476,5.367168 0,3.317092 -3.899476,5.367168 -3.154742,1.025038 -6.309484,-2.050076 -1.949738,-2.683584 0,-6.634184" transform="translate(89.460154 111.053984)" fill="#f7ab0a" stroke-width="0"/><polygon points="0,-6.634184 1.949738,-2.683584 6.309484,-2.050076 3.154742,1.025038 3.899476,5.367168 0,3.317092 -3.899476,5.367168 -3.154742,1.025038 -6.309484,-2.050076 -1.949738,-2.683584 0,-6.634184" transform="translate(89.460154 111.053984)" fill="#f7ab0a" stroke-width="0"/><polygon points="-3.241497,-6.634184 -2.293437,-2.683584 -0.173511,-2.050076 -1.707504,1.025038 -1.345377,5.367168 -3.241497,3.317092 -5.137618,5.367168 -4.775491,1.025038 -6.309484,-2.050076 -4.189557,-2.683584 -3.241497,-6.634184" transform="matrix(1.95568 0 0 1 113.367608 111.053984)" fill="#fff" stroke-width="0"/><polygon points="-3.241497,-6.634184 -2.293437,5.542319 -0.173511,7.494912 -1.707504,16.973 -1.345377,30.356273 -3.241497,24.037547 -5.137618,30.356273 -4.775491,16.973 -6.309484,7.494912 -4.189557,5.542319 -3.241497,-6.634184" transform="matrix(1.882122 0 0-.324408 131.863947 191.527447)" fill="#f7ab0a" stroke-width="0"/></svg>
